P1
101 103
11111111111111111111111110111111111111111111111111111111111111111111111111111111111111111111111111111
11111111111111111111111111111101111111111111111111111111111111111111111111111111111111111111111111111
11111111111111111111111111111111111111111111111111111111111111111111111111111111111110111111111011111
11111111111111111111111111111111111111111111110111111111111111111111111111111111111111110111111111111
11111111111111111111111111111111111111111111111111111111111111111111111111111111111111111111111111111
10111111111111101111111111111111111111111111111111111111111111111111111111111111111111111111111111111
11111111111111111111111111111111111111111111111111111111111111111111111111111111111111111111111111111
11111101111101111111111111111111111111111111111111111111111111111111011111111111111111110111111111111
01111111111111111111111111111111111111111111111111111111111111111111111111011111111111111111111111111
11111111111111111111111111111111111111111101111111111111111111111111111111111111111111111111111111111
11111111111111111111111111111111111111111111111111111111111111111111111111111111111111111111111111111
11111111111111111111111111111111111111111111111111111111111111111111111111111101111111111111111011111
11111111111111111111111111111111011101111111111111110111111111111111111111111111111011111111111111111
11111111111111111111011111111111111111111111111111111111111111111111111111111111111111111111111111111
11111111111111111111111011111111111111111111111111111111111111111111111111111111011111111111111111111
11111111111011111111111011111111111111111111101111111111111111111111111111111111111111111111111111111
11111111111111111111111111111111111111111111111111101111111111011111111111111111111111111111111111111
11111111111111111101111111111101111111111111111111111111111111111111111111111111111111111111111111011
11111111111111111111111111111111111111111111111111111111111111111111111111111111111111111111111111111
11111111111111111011111111111111111111111111101111111111111111111111111111111111111111111111111111111
11111111111111110110111111111111111111111111111111110111111111111111111111111111111111111111111111111
11111111111111111111111111111111111111111111111111111111111111111111111111111111111111111111111111111
11111111111111111111111111111111111111111111111111111111111111111111111111111111111111111111111111111
11111111111111111111111111110101111100000000000000000000000000000001111111111111111111111111111111111
10111111111111111111111111111111111101111111111111111111111111111101111111111111111111111111111111111
11111111111111111111111111111111111101111111111111111111111111111101111111111111111111111111111111111
11101111111111111111111111111111111101111111111111111111111111111101111111111111111111111111101111111
11111111111111111111111111011111111101111111111111111111111111111101111111111111111111011111111111111
11111111111111111111111111111111111101111111111111101111111111111101111111111111111111111111111111111
11111111111111111111111111111110111101111111111111000111111111111101111111111111111111111111111111111
11111111111111111111111111111111111101111111111110000011111111111101111111111111111111111111111111111
11111111111111111111111111111111111101111111111100000001111111111101111111111111111111111011111111011
11111111111111111111111111111111111101111111111000000000111111111101111111111110111111111111111101111
11111111111111111111111111111111111101111111111110000011111111111101111111101111111111111111111111111
11111111111111111111111111111111111101111111111100000001111111111101111111111111111111111111111111111
11111111111111111111101111111111110101111111111000000000111111111101011111111111111111111111111110111
11111111111111111111111111111111111101111111110000000000011111111101111111111111111111111111111111111
11111111111111111111111111111111111101111111100000000000001111111101111111111111111111111111111111111
11111111111111111111111111111111111101111111111000000000111111111101011111111111111111100111111111111
11111111111111111111111111111111111101111111110000000000011111111101111111111111111111111111111111111
11111111111111111111111111111111111101111111100000000000001111111101111111111111111111111111111111111
11111111111111111111110111111111111101111111000000000000000111111101111111111111111111111111111111111
11111110111111111111111111111111111101111110000000000000000011111101111111111111111111111111111111111
11111111111011011111111111111111111101111111100000000000001111111101111111111111111011111111111111111
11111111111111111111111111111111111101111111000000000000000111111101111111111111111111111111110111111
11111111111111111111111111111111111101111110000000000000000011111101111101111111111111111101111111111
11111101111111111111111111111111111101111100000000000000000001111101111111111011111111111111111111111
11111111111111110111111111111111111101111000000000000000000000111101111111111111111111011111111111111
11111111111111111111111111111111110101111111111111000111111111111101111111111111111111111111111111111
11111111111111111111111111111111111101111111111111000111111111111101111110111111111111111111111111111
11111111111111111111111111111111111101111111111111000111111111111101111111111111111111111111111111111
11111111111111111111111111111111111101111111111111111111111111111101111111111111111111111111111111111
11111111111111111111111111110111111101111111111111111111111111111101111111111111111111111111111111111
11111111111111111111111111111111111101111111111111111111111111111101111111111111111111111111111111111
11111111111111101111111111111111111101111111111111111111111111111101111111111111101111111111111111111
11111111111111011111111101111111111100000000000000000000000000000001111111111111111111110111111111111
11111111111111111111111111101111111111111111111111111111111111111111011111111111111111111111111111111
11111111111111111111011111011111111111111110111111111111111111111111110111111111111111111111111111111
11111111111111111111111111110111111111111111111111111111111111111111111111111111111111111111111111111
11111111111111111111111111111111111111111111111111111111111111111111111111111111111111111111111011111
11111111111111111111111110111111111111111111111111111111111111110111111111111111111111111111111111111
11111111111111111111111111111111111111111111111111111111111111111111111110111011111111111111111111111
11111111111111111111111111111111111111111111011111111111111111111111111111111111111111111111111111111
11111111111111111111111111111111111111111111111111111111111111111111111111111011111111011111111111111
11111111111111111111111111111111111111111111111111111111111111111111111111111111111111111111111111111
11111111111111111111111111111111111111111111111111111111111111111111111111111111111111111111111111111
11101111111111111111111111111111111111111111111101111111111111101111111111111111111111111111111111111
11111111111111111111111111111111111111111111111111111111111111111111111111111111111111111111111111111
11111111111111111111111111111111111111111111111111111111111111111111111111111111111111111111111111111
11111111111111111111111111111111111111111111111111111111111111111111111111111111111101111111111110111
11111111111111111111111111111111111111111111111111111111111111111101111111111111111111111111111111111
11111111111111111111111111111111011111111111111111111111011111111111111111111111111111111111111111111
11111111111111111111111111111111111111111111111111111111111111111111111111111111111111111111111111111
11111111111111111111110111111111111111111111111111111111111111111111111111111111111111111111111111111
11111111111111111111111111111101111111111110111111111111111111111111111111111111111111111111111111111
11111111111111111111111111111111111111111111111111111111111111011111111111111111111111111111111111111
11111111111111111111111111111111111111111111111111111111111111110111111111111111111111111111111111111
11111111111111111111111111111111111111011111111111111111111111111110111111111111111111110111111111111
11111111111111111111111111111111111111111111111111111111111111111111111111111111111111111111111111111
11111111111111111111111111111111111111111111111111111111111111111111111111111111111111111111111111111
11111111111111111111111111111111111111111111111111111111111111111111111110111111111111111111110111111
11111111111111111111111111111111111101111111011111111111101111111011111111111111111111111110111111111
11111111111111111111111111111111111111111111111111111111111111111111111111111111111111111111111111111
11111111111111111111111111111111111011111111111111111111111111111111011111111111111111111111111111111
11111111111111111111111111111111111111111111111111111111111111111111111111011111111111111111111111111
11111111111111111111111111111111111111111111111111111111111111111111101111111110111111111111111110111
11111111111111111111111111111111111111110111111111110111111111111111111101111111111111111111111111111
11111111111111111111111111111111111111111111111111111111111111111011110111111111111111111111111111111
11111111111111111111111111111111111111111110111111111111111111111111111111111111111111111111111111111
11111111111111111111111111111111111111111111111111111111111111111111111111111111111111111111111111111
10111101111111111111111111111111111111111111111111111111111111111111111111111111111011111111111111111
11111111111111111111111111111111111111111111111111111111101111111111111111111111111111111111111111111
11111111111111111111111111111111111111111111111111111111111111111111111111111111111111111101111111111
11111111111111111111111111111111111011111111111111111111111111111111111111111111111111111111011111111
11111111111111111111111101111111111111111111111111111111111111101111111111111111111111111101011111111
11111110111111111111111111111111111111111111111111111111111111111111111111011111111111111111111111110
11111111111111111111111111111111111111111111111111111111111111111111111111111111111111111111111111111
11111111111111111111111111111111111111111111111111111111111111111111111111111111111111111111111111111
11111111111111111111111111111111111111111111111111111111111111111101111111111111111111111111111111101
11111111111111111111111111111111111111111111111111111111111111111111111110111111111111111111111111111
11111111111111111111111111011111111111111111111111111111111111111111111111111111111111111111111111111
11111111111111111111111111111111111111111111111111111111111111111011111111111111111111111111111111111
11111111111011111111111111111111111111111111111111111111111111111111111111111111111111111111111111111
